<svg xmlns="http://www.w3.org/2000/svg" xmlns:xlink="http://www.w3.org/1999/xlink" width="1366" zoomAndPan="magnify" viewBox="0 0 1024.5 576" height="768" preserveAspectRatio="xMidYMid meet" version="1.0"><defs><filter x="0%" y="0%" width="100%" height="100%" id="92a79a031b"><feColorMatrix values="0 0 0 0 1 0 0 0 0 1 0 0 0 0 1 0 0 0 1 0" color-interpolation-filters="sRGB"/></filter><clipPath id="5e2d72e5ee"><path d="M 0 0.140625 L 1024 0.140625 L 1024 575.859375 L 0 575.859375 Z M 0 0.140625 " clip-rule="nonzero"/></clipPath><clipPath id="964e7207bb"><path d="M 805 392 L 1024 392 L 1024 575.859375 L 805 575.859375 Z M 805 392 " clip-rule="nonzero"/></clipPath><mask id="1fca1c333b"><g filter="url(#92a79a031b)"><rect x="-102.45" width="1229.4" fill="#000000" y="-57.6" height="691.2" fill-opacity="0.14"/></g></mask><clipPath id="54970b9e24"><path d="M 2 0.230469 L 219 0.230469 L 219 183.859375 L 2 183.859375 Z M 2 0.230469 " clip-rule="nonzero"/></clipPath><clipPath id="a5fa74866c"><rect x="0" width="219" y="0" height="184"/></clipPath><clipPath id="4d092d92e0"><path d="M 841 0.140625 L 1024 0.140625 L 1024 179 L 841 179 Z M 841 0.140625 " clip-rule="nonzero"/></clipPath><mask id="50f48fa1b0"><g filter="url(#92a79a031b)"><rect x="-102.45" width="1229.4" fill="#000000" y="-57.6" height="691.2" fill-opacity="0.14"/></g></mask><clipPath id="e1c971269e"><path d="M 7 0.140625 L 183 0.140625 L 183 178 L 7 178 Z M 7 0.140625 " clip-rule="nonzero"/></clipPath><clipPath id="21841af427"><rect x="0" width="183" y="0" height="179"/></clipPath><mask id="2638d6788e"><g filter="url(#92a79a031b)"><rect x="-102.45" width="1229.4" fill="#000000" y="-57.6" height="691.2" fill-opacity="0.14"/></g></mask><clipPath id="731b0e3e77"><path d="M 75 3 L 227 3 L 227 408 L 75 408 Z M 75 3 " clip-rule="nonzero"/></clipPath><clipPath id="d9dc62e5f7"><path d="M 0.574219 350.570312 L 214.445312 1.59375 L 322.460938 67.789062 L 108.59375 416.769531 Z M 0.574219 350.570312 " clip-rule="nonzero"/></clipPath><clipPath id="0b29d198e7"><path d="M 0.574219 350.570312 L 214.445312 1.59375 L 322.460938 67.789062 L 108.59375 416.769531 Z M 0.574219 350.570312 " clip-rule="nonzero"/></clipPath><clipPath id="9c84c6854a"><path d="M 0.574219 350.570312 L 214.445312 1.59375 L 322.460938 67.789062 L 108.59375 416.769531 Z M 0.574219 350.570312 " clip-rule="nonzero"/></clipPath><clipPath id="c61b6d9889"><rect x="0" width="323" y="0" height="417"/></clipPath><mask id="cc14300a61"><g filter="url(#92a79a031b)"><rect x="-102.45" width="1229.4" fill="#000000" y="-57.6" height="691.2" fill-opacity="0.14"/></g></mask><clipPath id="96b2e37da4"><path d="M 0.167969 22 L 418 22 L 418 111 L 0.167969 111 Z M 0.167969 22 " clip-rule="nonzero"/></clipPath><clipPath id="61a30fc51e"><path d="M 10.664062 0.230469 L 417.589844 44.234375 L 407.195312 140.375 L 0.265625 96.371094 Z M 10.664062 0.230469 " clip-rule="nonzero"/></clipPath><clipPath id="c82c682af8"><path d="M 10.664062 0.230469 L 417.589844 44.234375 L 407.195312 140.375 L 0.265625 96.371094 Z M 10.664062 0.230469 " clip-rule="nonzero"/></clipPath><clipPath id="ce6bb98327"><path d="M 10.664062 0.230469 L 417.589844 44.234375 L 407.195312 140.375 L 0.265625 96.371094 Z M 10.664062 0.230469 " clip-rule="nonzero"/></clipPath><clipPath id="add1d67c2f"><path d="M 0.167969 21 L 418 21 L 418 111 L 0.167969 111 Z M 0.167969 21 " clip-rule="nonzero"/></clipPath><clipPath id="357d5a71ae"><path d="M 10.664062 0.230469 L 417.589844 44.234375 L 407.195312 140.375 L 0.265625 96.371094 Z M 10.664062 0.230469 " clip-rule="nonzero"/></clipPath><clipPath id="c64738aec0"><path d="M 10.664062 0.230469 L 417.589844 44.234375 L 407.195312 140.375 L 0.265625 96.371094 Z M 10.664062 0.230469 " clip-rule="nonzero"/></clipPath><clipPath id="a7825d584e"><path d="M 10.664062 0.230469 L 417.589844 44.234375 L 407.195312 140.375 L 0.265625 96.371094 Z M 10.664062 0.230469 " clip-rule="nonzero"/></clipPath><clipPath id="4ef5e1568e"><rect x="0" width="419" y="0" height="142"/></clipPath><clipPath id="d1207cf3ef"><path d="M 41 0.140625 L 295 0.140625 L 295 232 L 41 232 Z M 41 0.140625 " clip-rule="nonzero"/></clipPath><mask id="6a0d1035a1"><g filter="url(#92a79a031b)"><rect x="-102.45" width="1229.4" fill="#000000" y="-57.6" height="691.2" fill-opacity="0.14"/></g></mask><clipPath id="bb8bfc1993"><path d="M 1.15625 0.140625 L 253 0.140625 L 253 229 L 1.15625 229 Z M 1.15625 0.140625 " clip-rule="nonzero"/></clipPath><clipPath id="a8039c6371"><rect x="0" width="254" y="0" height="232"/></clipPath></defs><g clip-path="url(#5e2d72e5ee)"><path fill="#ffffff" d="M 0 0.140625 L 1024 0.140625 L 1024 575.859375 L 0 575.859375 Z M 0 0.140625 " fill-opacity="1" fill-rule="nonzero"/><path fill="#ffffff" d="M 0 0.140625 L 1024 0.140625 L 1024 575.859375 L 0 575.859375 Z M 0 0.140625 " fill-opacity="1" fill-rule="nonzero"/></g><g clip-path="url(#964e7207bb)"><g mask="url(#1fca1c333b)"><g transform="matrix(1, 0, 0, 1, 805, 392)"><g clip-path="url(#a5fa74866c)"><g clip-path="url(#54970b9e24)"><path fill="#000000" d="M 238.785156 173.136719 C 251.296875 155.433594 266.867188 133.394531 266.867188 106.898438 C 266.867188 91.433594 262.503906 77.503906 253.894531 65.5 C 246.585938 55.308594 236.359375 46.78125 223.492188 40.15625 C 217.761719 37.203125 211.867188 34.792969 205.992188 32.835938 C 204.050781 30.273438 201.832031 27.839844 199.339844 25.539062 C 189.097656 16.089844 174.03125 8.933594 155.769531 4.835938 C 140.605469 1.433594 123.835938 0.234375 108.5625 1.457031 C 79.65625 3.769531 38.613281 18.046875 16.804688 43.914062 C 5.742188 57.039062 0.859375 71.652344 2.289062 87.351562 C 3.441406 100.015625 8.070312 111.949219 14.230469 122.632812 C 14.136719 125.695312 14.226562 128.78125 14.507812 131.882812 C 16.035156 148.640625 22.414062 165.632812 33.457031 182.390625 C 42.050781 195.421875 53.21875 208.011719 66.660156 219.804688 C 77.316406 229.15625 87.421875 236.265625 97.554688 241.539062 C 111.03125 248.554688 124.414062 252.109375 137.328125 252.109375 C 148.179688 252.109375 158.703125 249.621094 168.621094 244.707031 C 170.171875 243.9375 171.691406 243.125 173.191406 242.289062 C 175.707031 243.800781 178.167969 244.984375 180.59375 245.855469 C 183.820312 247.011719 186.96875 247.589844 190.019531 247.589844 C 193.6875 247.589844 197.214844 246.753906 200.574219 245.089844 C 211.878906 239.492188 219.886719 228.859375 227.761719 217.53125 C 228.320312 216.730469 228.898438 215.914062 229.480469 215.089844 C 234.769531 207.605469 240.761719 199.121094 240.761719 189.691406 C 240.761719 184.578125 239.394531 180.027344 236.695312 176.089844 C 237.378906 175.132812 238.070312 174.152344 238.785156 173.136719 Z M 3.683594 87.226562 C 2.289062 71.914062 7.0625 57.652344 17.875 44.824219 C 39.425781 19.257812 80.050781 5.144531 108.675781 2.855469 C 112.472656 2.550781 116.433594 2.394531 120.5 2.394531 C 147.820312 2.394531 179.855469 9.476562 198.390625 26.574219 C 200.289062 28.320312 202.019531 30.152344 203.585938 32.058594 C 183.242188 25.679688 163.445312 24.523438 151.8125 24.523438 C 147.242188 24.523438 142.742188 24.699219 138.441406 25.042969 C 120.921875 26.445312 101.507812 31.394531 83.785156 38.980469 C 62.765625 47.976562 45.363281 60.191406 33.476562 74.292969 C 21.933594 87.984375 15.4375 103.601562 14.355469 120.011719 C 8.832031 109.992188 4.75 98.921875 3.683594 87.226562 Z M 205.125 34.027344 C 211.527344 42.625 214.765625 52.703125 214.765625 64.113281 C 214.765625 84.050781 201.859375 102.316406 190.46875 118.429688 C 189.160156 120.285156 187.921875 122.035156 186.695312 123.800781 C 169.621094 148.351562 152.285156 171.382812 128.011719 183.410156 C 104.722656 194.949219 78.839844 187.78125 48.886719 161.496094 C 39.285156 153.066406 25.511719 139.273438 15.640625 122.285156 C 16.253906 105.378906 22.695312 89.261719 34.546875 75.199219 C 46.296875 61.261719 63.515625 49.183594 84.335938 40.273438 C 101.925781 32.746094 121.175781 27.832031 138.550781 26.441406 C 142.816406 26.101562 147.273438 25.929688 151.808594 25.929688 C 163.726562 25.929688 184.28125 27.148438 205.125 34.027344 Z M 168 243.457031 C 158.28125 248.273438 147.964844 250.710938 137.332031 250.710938 C 124.644531 250.710938 111.476562 247.210938 98.207031 240.300781 C 88.175781 235.078125 78.15625 228.027344 67.589844 218.753906 C 54.242188 207.042969 43.152344 194.550781 34.632812 181.625 C 23.710938 165.0625 17.414062 148.289062 15.90625 131.761719 C 15.699219 129.480469 15.601562 127.210938 15.601562 124.953125 C 25.464844 141.210938 38.65625 154.378906 47.964844 162.546875 C 61.285156 174.238281 73.578125 182.007812 85.546875 186.300781 C 92.515625 188.800781 99.308594 190.046875 105.898438 190.046875 C 113.796875 190.046875 121.402344 188.253906 128.640625 184.667969 C 153.210938 172.496094 170.671875 149.308594 187.851562 124.601562 C 189.074219 122.84375 190.3125 121.09375 191.621094 119.242188 C 203.128906 102.957031 216.171875 84.5 216.171875 64.117188 C 216.171875 53.097656 213.234375 43.285156 207.417969 34.804688 C 212.609375 36.625 217.796875 38.800781 222.859375 41.40625 C 235.523438 47.929688 245.582031 56.3125 252.761719 66.324219 C 261.195312 78.082031 265.472656 91.738281 265.472656 106.90625 C 265.472656 132.957031 250.042969 154.792969 237.648438 172.332031 C 237.027344 173.210938 236.425781 174.066406 235.832031 174.90625 C 234.984375 173.820312 234.035156 172.785156 232.96875 171.804688 C 223.011719 162.625 204.824219 159.613281 191.214844 160.707031 C 177.9375 161.769531 159.078125 168.335938 149.042969 180.234375 C 143.921875 186.308594 141.664062 193.078125 142.328125 200.351562 C 143.722656 215.648438 156.078125 228.59375 163.316406 234.949219 C 166.253906 237.527344 169.082031 239.683594 171.839844 241.453125 C 170.570312 242.140625 169.292969 242.816406 168 243.457031 Z M 234.976562 176.105469 C 234.632812 176.597656 234.289062 177.089844 233.949219 177.578125 C 217.242188 201.601562 198.820312 226.128906 173.226562 240.675781 C 170.320312 238.859375 167.328125 236.597656 164.234375 233.882812 C 157.152344 227.667969 145.066406 215.027344 143.714844 200.214844 C 143.089844 193.324219 145.242188 186.90625 150.109375 181.128906 C 159.882812 169.535156 178.324219 163.132812 191.320312 162.09375 C 193.050781 161.957031 194.851562 161.882812 196.703125 161.882812 C 209.097656 161.882812 223.621094 165.085938 232.011719 172.828125 C 233.128906 173.859375 234.113281 174.953125 234.976562 176.105469 Z M 239.363281 189.695312 C 239.363281 198.679688 233.507812 206.96875 228.335938 214.285156 C 227.753906 215.117188 227.171875 215.933594 226.613281 216.738281 C 218.84375 227.910156 210.960938 238.386719 199.953125 243.839844 C 192.238281 247.664062 183.871094 246.902344 174.59375 241.5 C 200.089844 226.769531 218.449219 202.328125 235.101562 178.375 C 235.34375 178.023438 235.589844 177.675781 235.839844 177.320312 C 238.179688 180.929688 239.363281 185.066406 239.363281 189.695312 Z M 239.363281 189.695312 " fill-opacity="1" fill-rule="nonzero"/></g></g></g></g></g><g clip-path="url(#4d092d92e0)"><g mask="url(#50f48fa1b0)"><g transform="matrix(1, 0, 0, 1, 841, 0.000000000000055289)"><g clip-path="url(#21841af427)"><g clip-path="url(#e1c971269e)"><path fill="#000000" d="M 390.554688 118.988281 C 386.058594 88.050781 358.027344 58.222656 339.480469 38.488281 C 302.980469 -0.347656 282.941406 -36.445312 276.421875 -75.121094 C 275.011719 -83.472656 274.417969 -92.832031 273.796875 -102.738281 C 272.234375 -127.386719 270.464844 -155.328125 254.609375 -173.351562 C 251.148438 -177.28125 242.160156 -186.128906 233.464844 -183.324219 C 227.050781 -181.257812 224.125 -172.9375 221.980469 -166.859375 C 221.546875 -165.621094 221.132812 -164.457031 220.734375 -163.449219 C 217.347656 -154.941406 213.375 -146.703125 209.015625 -138.671875 C 206.367188 -160.210938 200.589844 -182.800781 184.71875 -200.84375 C 173.058594 -214.101562 158.878906 -221.402344 144.804688 -221.402344 C 140.527344 -221.402344 136.304688 -220.738281 132.261719 -219.4375 C 111.894531 -212.871094 105.179688 -193.804688 101.9375 -184.613281 C 101.621094 -183.722656 101.296875 -182.796875 101.121094 -182.34375 C 91.714844 -158.710938 76.957031 -137.082031 61.339844 -114.179688 C 50.140625 -97.765625 38.5625 -80.796875 28.5625 -62.378906 C 16.152344 -39.542969 1.179688 -5.539062 11.21875 29.863281 C 7.453125 43.078125 6.316406 57.097656 11.003906 70.800781 C 21.207031 100.613281 52.246094 115.542969 80.542969 127.199219 C 134.492188 149.421875 184.507812 165.4375 229.191406 174.808594 C 234.976562 176.023438 241.933594 177.222656 248.421875 177.222656 C 254.949219 177.222656 261 176.003906 264.890625 172.351562 C 267.925781 169.5 269.347656 165.429688 269.140625 160.226562 C 272.007812 160.496094 274.984375 160.667969 277.988281 160.667969 C 299.375 160.667969 311.425781 151.941406 317.765625 144.613281 C 320.664062 141.269531 323.695312 136.707031 325.765625 130.8125 C 334.3125 132.976562 342.691406 134.921875 350.886719 136.636719 C 356.671875 137.855469 363.628906 139.054688 370.109375 139.054688 C 376.636719 139.054688 382.691406 137.832031 386.578125 134.179688 C 390.191406 130.78125 391.523438 125.675781 390.554688 118.988281 Z M 30.445312 -61.359375 C 40.390625 -79.675781 51.945312 -96.601562 63.109375 -112.96875 C 78.804688 -135.972656 93.621094 -157.695312 103.113281 -181.546875 C 103.304688 -182.039062 103.640625 -182.984375 103.972656 -183.929688 C 107.082031 -192.765625 113.5625 -211.148438 132.914062 -217.390625 C 136.746094 -218.621094 140.742188 -219.25 144.792969 -219.25 C 158.238281 -219.25 171.839844 -212.210938 183.085938 -199.425781 C 199.304688 -180.988281 204.765625 -157.527344 207.210938 -135.421875 C 198.308594 -119.488281 187.988281 -104.359375 177.890625 -89.550781 C 169.464844 -77.203125 160.816406 -64.519531 153.003906 -51.410156 C 152.65625 -55.652344 152.371094 -60.046875 152.085938 -64.558594 C 150.523438 -89.207031 148.753906 -117.148438 132.898438 -135.171875 C 129.4375 -139.101562 120.453125 -147.949219 111.746094 -145.140625 C 105.335938 -143.078125 102.40625 -134.757812 100.265625 -128.679688 C 99.828125 -127.441406 99.414062 -126.273438 99.015625 -125.269531 C 88.40625 -98.605469 72.023438 -74.589844 56.183594 -51.371094 C 45.402344 -35.566406 34.253906 -19.21875 24.960938 -2.121094 C 20.367188 6.332031 15.691406 15.867188 12.398438 25.953125 C 4.40625 -7.515625 18.617188 -39.582031 30.445312 -61.359375 Z M 209.0625 -112.425781 C 209.644531 -103.257812 210.191406 -94.589844 211.367188 -87.644531 C 217.019531 -54.097656 234.292969 -23.445312 267.367188 11.75 C 288.269531 33.992188 319.855469 67.601562 325.597656 107.085938 C 326.8125 115.449219 326.070312 122.457031 324.351562 128.222656 C 297.78125 121.414062 269.570312 112.472656 239.972656 101.492188 C 232.375 92.1875 224.46875 83.769531 217.789062 76.664062 C 181.289062 37.828125 161.253906 1.730469 154.730469 -36.945312 C 154.152344 -40.382812 153.714844 -43.992188 153.355469 -47.734375 C 161.523438 -61.707031 170.726562 -75.214844 179.6875 -88.34375 C 189.257812 -102.375 199.023438 -116.691406 207.617188 -131.730469 C 208.257812 -125.074219 208.671875 -118.585938 209.0625 -112.425781 Z M 203.054688 87.027344 C 175.195312 75.558594 144.644531 60.886719 134.734375 31.929688 C 126.222656 7.058594 137.660156 -19.1875 148.570312 -39.277344 C 149.535156 -41.046875 150.519531 -42.804688 151.515625 -44.558594 C 151.820312 -41.824219 152.171875 -39.15625 152.601562 -36.585938 C 156.195312 -15.261719 163.707031 4.957031 175.558594 25.222656 C 185.621094 42.425781 198.921875 59.734375 216.214844 78.132812 C 222.171875 84.46875 229.109375 91.851562 235.921875 99.972656 C 225.140625 95.929688 214.1875 91.617188 203.054688 87.027344 Z M 238.667969 103.304688 C 251.835938 119.507812 263.949219 138.34375 266.730469 157.472656 C 266.746094 157.585938 266.757812 157.695312 266.773438 157.808594 C 261.539062 157.1875 256.789062 156.28125 253.140625 155.515625 C 206.808594 145.804688 155.171875 129.285156 99.667969 106.421875 C 84.316406 100.101562 68.105469 92.84375 53.515625 82.632812 C 34.242188 69.152344 21.15625 52.632812 14.625 33.542969 C 14.207031 32.320312 13.824219 31.101562 13.46875 29.878906 C 16.71875 18.734375 21.851562 8.160156 26.886719 -1.101562 C 36.125 -18.101562 47.242188 -34.398438 57.996094 -50.160156 C 73.902344 -73.476562 90.351562 -97.585938 101.050781 -124.472656 C 101.464844 -125.515625 101.886719 -126.707031 102.332031 -127.964844 C 104.429688 -133.929688 107.046875 -141.351562 112.441406 -143.09375 C 113.355469 -143.390625 114.289062 -143.519531 115.21875 -143.519531 C 122.121094 -143.519531 129.125 -136.230469 131.3125 -133.746094 C 146.675781 -116.273438 148.425781 -88.722656 149.964844 -64.414062 C 150.320312 -58.808594 150.667969 -53.394531 151.152344 -48.207031 C 149.632812 -45.589844 148.136719 -42.949219 146.695312 -40.292969 C 135.570312 -19.816406 123.929688 6.972656 132.710938 32.636719 C 142.910156 62.449219 173.949219 77.378906 202.246094 89.035156 C 214.589844 94.105469 226.738281 98.867188 238.667969 103.304688 Z M 263.417969 170.773438 C 255.578125 178.132812 236.050781 174.039062 229.632812 172.695312 C 185.070312 163.351562 135.191406 147.375 81.359375 125.203125 C 53.5 113.730469 22.949219 99.058594 13.039062 70.101562 C 8.90625 58.023438 9.488281 45.617188 12.417969 33.746094 C 12.472656 33.90625 12.527344 34.074219 12.582031 34.234375 C 19.261719 53.769531 32.625 70.644531 52.273438 84.394531 C 67.035156 94.71875 83.375 102.039062 98.839844 108.40625 C 154.472656 131.320312 206.234375 147.878906 252.695312 157.621094 C 256.496094 158.414062 261.480469 159.371094 266.976562 159.996094 C 267.21875 164.695312 266.03125 168.320312 263.417969 170.773438 Z M 316.140625 143.195312 C 310.089844 150.179688 298.566406 158.507812 277.992188 158.507812 C 274.929688 158.507812 271.894531 158.324219 268.972656 158.039062 C 268.941406 157.75 268.910156 157.457031 268.863281 157.160156 C 266.171875 138.65625 255.054688 120.542969 242.589844 104.75 C 270.980469 115.171875 298.082031 123.703125 323.671875 130.265625 C 321.703125 135.78125 318.855469 140.054688 316.140625 143.195312 Z M 385.109375 132.597656 C 377.273438 139.960938 357.746094 135.871094 351.328125 134.519531 C 343.203125 132.8125 334.902344 130.890625 326.433594 128.75 C 328.21875 122.734375 328.980469 115.449219 327.722656 106.765625 C 321.886719 66.617188 290.015625 32.707031 268.929688 10.269531 C 236.171875 -24.59375 219.070312 -54.898438 213.484375 -88.003906 C 212.335938 -94.839844 211.785156 -103.449219 211.210938 -112.570312 C 210.757812 -119.6875 210.28125 -127.25 209.445312 -134.984375 C 214.410156 -143.914062 218.9375 -153.113281 222.734375 -162.660156 C 223.148438 -163.703125 223.570312 -164.890625 224.011719 -166.148438 C 226.109375 -172.113281 228.722656 -179.535156 234.121094 -181.277344 C 235.035156 -181.574219 235.964844 -181.703125 236.894531 -181.703125 C 243.800781 -181.703125 250.804688 -174.417969 252.996094 -171.929688 C 268.359375 -154.457031 270.109375 -126.910156 271.648438 -102.601562 C 272.277344 -92.640625 272.875 -83.226562 274.300781 -74.761719 C 277.894531 -53.4375 285.40625 -33.21875 297.257812 -12.953125 C 307.320312 4.25 320.621094 21.5625 337.914062 39.957031 C 356.277344 59.496094 384.03125 89.03125 388.429688 119.292969 C 389.292969 125.246094 388.171875 129.722656 385.109375 132.597656 Z M 385.109375 132.597656 " fill-opacity="1" fill-rule="nonzero"/></g></g></g></g></g><g mask="url(#2638d6788e)"><g transform="matrix(1, 0, 0, 1, 57, 79)"><g clip-path="url(#c61b6d9889)"><g clip-path="url(#731b0e3e77)"><g clip-path="url(#d9dc62e5f7)"><g clip-path="url(#0b29d198e7)"><g clip-path="url(#9c84c6854a)"><path fill="#000000" d="M 99.296875 363.292969 C 103.222656 360.148438 106.945312 357.28125 110.542969 354.234375 C 114.140625 351.191406 118.449219 349.648438 122.832031 348.3125 C 125.945312 347.363281 128.78125 348.171875 130.878906 350.785156 C 132.261719 352.496094 133.660156 354.285156 134.761719 356.1875 C 138.753906 363.152344 137.367188 369.8125 131.582031 375.234375 C 124.046875 382.3125 119.105469 382.871094 107.742188 377.9375 C 105.347656 376.898438 103.234375 375.238281 100.617188 373.636719 C 99.910156 375.226562 99 376.765625 98.476562 378.4375 C 96.378906 384.957031 94.992188 391.515625 96.242188 398.496094 C 96.660156 400.910156 96.023438 403.578125 95.570312 406.058594 C 95.265625 407.699219 94.496094 407.757812 93.398438 406.453125 C 90.582031 403.167969 88.898438 399.011719 88.65625 394.675781 C 88.078125 385.351562 89.195312 376.402344 94.617188 368.429688 C 94.921875 367.984375 94.898438 366.941406 94.566406 366.503906 C 86.933594 355.914062 82.347656 344.101562 78.945312 331.550781 C 75.058594 317.242188 74.066406 302.28125 76.050781 287.582031 C 77.726562 274.789062 79.148438 261.707031 83.441406 249.488281 C 90.035156 230.738281 100.050781 213.851562 113.167969 198.804688 C 126.816406 183.113281 141.660156 168.621094 156.3125 153.949219 C 166.035156 144.226562 175.871094 134.539062 183.726562 123.238281 C 189.78125 114.558594 195.199219 105.386719 200.445312 96.175781 C 204.636719 88.847656 208.441406 81.277344 211.855469 73.535156 C 215.949219 64.25 217.1875 54.179688 218.800781 44.269531 C 220.929688 31.390625 219.457031 18.957031 213.804688 7.089844 C 213.210938 5.828125 212.648438 4.519531 214.019531 3.535156 C 215.390625 2.546875 216.609375 3.492188 217.511719 4.410156 C 220.265625 7.09375 222.257812 10.476562 223.277344 14.191406 C 226.082031 24.613281 227.605469 35.117188 225.753906 45.910156 C 223.964844 56.4375 222.699219 67.089844 218.449219 77.011719 C 215.6875 83.425781 212.660156 89.777344 209.320312 95.933594 C 204.367188 104.992188 199.351562 114.046875 193.78125 122.757812 C 185.5625 135.628906 174.828125 146.457031 164.230469 157.335938 C 152.4375 169.511719 140.179688 181.304688 128.503906 193.617188 C 118.917969 203.71875 109.714844 214.226562 102.746094 226.46875 C 97.855469 235.097656 92.296875 243.621094 89.9375 253.234375 C 85.089844 272.992188 79.539062 292.8125 81.542969 313.507812 C 83.128906 329.894531 87.238281 345.632812 96.53125 359.601562 C 97.351562 360.871094 98.347656 362.011719 99.296875 363.292969 Z M 104.929688 368.9375 C 108.226562 372.253906 112.109375 373.636719 116.191406 374.640625 C 121.535156 375.921875 126.832031 373.421875 129.632812 368.359375 C 132.058594 363.96875 131.199219 359.984375 126.890625 355.714844 C 126.855469 355.664062 126.8125 355.570312 126.75 355.5625 C 125.882812 355.398438 124.886719 354.855469 124.164062 355.109375 C 116.472656 357.769531 110.65625 363.074219 104.929688 368.9375 Z M 104.929688 368.9375 " fill-opacity="1" fill-rule="nonzero"/></g></g></g></g></g></g></g><g mask="url(#cc14300a61)"><g transform="matrix(1, 0, 0, 1, 150, 392)"><g clip-path="url(#4ef5e1568e)"><g clip-path="url(#96b2e37da4)"><g clip-path="url(#61a30fc51e)"><g clip-path="url(#c82c682af8)"><g clip-path="url(#ce6bb98327)"><path fill="#000000" d="M 365.023438 58.578125 C 377.882812 50.890625 397.332031 42.703125 416.972656 47.375 L 417.453125 45.351562 C 408.886719 43.316406 399.585938 43.492188 389.816406 45.871094 C 381.328125 47.933594 372.628906 51.609375 363.957031 56.792969 C 354.332031 62.546875 345.386719 69.582031 336.738281 76.386719 C 331.109375 80.816406 325.289062 85.394531 319.347656 89.566406 C 300.964844 102.46875 284.5 108.640625 269.011719 108.429688 C 254.617188 108.234375 240.527344 102.277344 230.355469 92.089844 C 227.070312 88.800781 224.109375 85 221.242188 81.324219 C 216.1875 74.835938 210.957031 68.128906 203.714844 63.882812 C 196.492188 59.644531 187.898438 58.148438 178.171875 59.4375 C 169.960938 60.523438 161.195312 63.609375 152.820312 68.359375 C 146.449219 71.972656 140.363281 76.261719 134.480469 80.414062 C 126.292969 86.183594 117.832031 92.152344 108.59375 96.269531 C 93.398438 103.042969 72.761719 104.183594 60.90625 91.46875 C 59.476562 89.9375 58.261719 88.292969 57.238281 86.566406 C 66.511719 83.433594 75.414062 79.414062 83.832031 74.542969 C 90.921875 70.441406 99.691406 64.589844 104.621094 55.648438 C 106.976562 51.375 108.179688 46.382812 108.007812 41.59375 C 107.820312 36.375 106.050781 31.808594 102.898438 28.390625 C 99.917969 25.167969 95.800781 23.082031 90.980469 22.367188 C 86.511719 21.703125 81.730469 22.296875 77.523438 24.039062 C 70.195312 27.070312 63.785156 33.195312 58.472656 42.246094 C 53.746094 50.292969 51.039062 59.554688 50.847656 68.320312 C 50.710938 74.628906 51.871094 80.378906 54.25 85.335938 C 37.003906 90.835938 18.710938 93.199219 0.742188 92.097656 L 0.617188 94.171875 C 14.976562 95.050781 29.460938 93.796875 43.660156 90.445312 C 47.574219 89.523438 51.433594 88.449219 55.238281 87.226562 C 56.398438 89.273438 57.785156 91.167969 59.390625 92.886719 C 64.707031 98.589844 72.136719 102.070312 80.96875 103.027344 C 81.636719 103.097656 82.316406 103.15625 83 103.199219 C 91.554688 103.742188 100.941406 101.953125 109.4375 98.167969 C 118.859375 93.96875 127.410156 87.9375 135.675781 82.109375 C 141.519531 77.988281 147.5625 73.726562 153.84375 70.164062 C 171.828125 59.96875 190.078125 58.289062 202.664062 65.671875 C 209.566406 69.71875 214.441406 75.976562 219.605469 82.601562 C 222.507812 86.324219 225.511719 90.175781 228.886719 93.558594 C 238.183594 102.871094 250.632812 108.773438 263.675781 110.183594 C 265.433594 110.375 267.207031 110.484375 268.980469 110.507812 C 284.921875 110.722656 301.785156 104.429688 320.539062 91.265625 C 326.527344 87.0625 332.371094 82.464844 338.023438 78.019531 C 346.621094 71.257812 355.511719 64.261719 365.019531 58.578125 Z M 60.261719 43.296875 C 65.34375 34.648438 71.417969 28.8125 78.316406 25.957031 C 82.054688 24.410156 86.027344 23.878906 89.75 24.28125 C 94.300781 24.773438 98.472656 26.660156 101.371094 29.800781 C 107.589844 36.535156 106.796875 47.394531 102.800781 54.648438 C 98.121094 63.140625 89.648438 68.78125 82.792969 72.746094 C 74.398438 77.601562 65.472656 81.597656 56.226562 84.691406 C 49.886719 71.875 53.332031 55.101562 60.261719 43.296875 Z M 60.261719 43.296875 " fill-opacity="1" fill-rule="nonzero"/></g></g></g></g><g clip-path="url(#add1d67c2f)"><g clip-path="url(#357d5a71ae)"><g clip-path="url(#c64738aec0)"><g clip-path="url(#a7825d584e)"><path stroke-linecap="butt" transform="matrix(0.0292971, 0.00316807, -0.00316842, 0.0293003, 10.585669, 0.936954)" fill="none" stroke-linejoin="miter" d="M 12168.512394 651.54328 C 12574.322353 345.296248 13200.639917 -1.857655 13880.330814 84.099227 L 13889.158916 14.086148 C 13592.715805 -23.319676 13279.562229 16.5391 12958.63149 132.429936 C 12679.773907 232.972914 12399.685421 388.709176 12126.020509 595.211511 C 11822.279242 824.430206 11546.144101 1094.392203 11279.184261 1355.496386 C 11105.43419 1525.4652 10925.767901 1701.139771 10740.53394 1863.551306 C 10167.396801 2365.869532 9634.414012 2634.139774 9111.092261 2683.524369 C 8624.729057 2729.446121 8127.624773 2579.885696 7747.272828 2273.318493 C 7624.436748 2174.346578 7510.672406 2056.929174 7400.527098 1943.386631 C 7206.317711 1742.944735 7005.379641 1535.764583 6745.547468 1418.942435 C 6486.402754 1302.312591 6191.003795 1283.191706 5867.546622 1362.160083 C 5594.483369 1428.747139 5310.002473 1564.827361 5044.771789 1755.619491 C 4843.002847 1900.754433 4653.320153 2067.646513 4469.991803 2229.185417 C 4214.80671 2453.687285 3951.123052 2685.907254 3654.457784 2858.500763 C 3166.501854 3142.433431 2474.410259 3256.194042 2028.035653 2870.508961 C 1974.213524 2824.067913 1927.226622 2773.0216 1886.39821 2718.509734 C 2187.840948 2578.995715 2473.528455 2410.922109 2739.767049 2215.888152 C 2964.004153 2051.659151 3238.526858 1822.266748 3372.225951 1502.646518 C 3436.105039 1349.890124 3458.483462 1177.090506 3435.212449 1016.159216 C 3409.846618 840.789484 3333.485326 693.197644 3214.659851 589.392602 C 3102.345759 491.549406 2955.827576 436.199938 2790.58921 429.669073 C 2637.397322 423.568822 2478.251083 461.040667 2342.668061 535.16015 C 2106.486813 664.151563 1912.5636 894.161446 1766.348007 1218.867907 C 1636.23849 1507.570273 1578.697213 1829.888047 1604.219554 2126.293292 C 1622.62285 2339.611469 1682.742882 2529.354633 1781.088742 2687.901174 C 1219.296471 2936.355781 610.74029 3082.812619 0.481801 3111.200753 L 3.831968 3181.630196 C 491.503044 3158.897622 975.610182 3063.758953 1442.443566 2898.896413 C 1571.135039 2853.518782 1697.42563 2803.201356 1821.329591 2748.075912 C 1867.939309 2812.894726 1921.637114 2871.747758 1982.073914 2923.872847 C 2182.248784 3096.872881 2445.613664 3187.182797 2747.085195 3187.249254 C 2769.878019 3187.184516 2793.023461 3186.681698 2816.243689 3185.637523 C 3106.847397 3172.747383 3417.014557 3078.151317 3689.850861 2919.466297 C 3992.411036 2743.435735 4258.89787 2508.779592 4516.505017 2282.016077 C 4698.629465 2121.673885 4886.962216 1955.86099 5085.885229 1812.766892 C 5655.455874 1403.223428 6265.056344 1279.984268 6716.622765 1483.129383 C 6964.262282 1594.470652 7151.568442 1787.793213 7349.966782 1992.4483 C 7461.469227 2107.443915 7576.86854 2226.417668 7703.077852 2328.22448 C 8050.716253 2608.465653 8492.268707 2762.166128 8937.464331 2762.157379 C 8997.468697 2762.20202 9057.700948 2759.422351 9117.619669 2753.743592 C 9656.243452 2702.837795 10202.227153 2429.028992 10786.929614 1916.527992 C 10973.631059 1752.891245 11154.016838 1576.472292 11328.500651 1405.890872 C 11593.90397 1146.421481 11868.336548 877.976749 12168.380603 651.55753 Z M 1830.542007 1247.789432 C 1970.449811 937.496714 2154.093583 718.463795 2376.419109 596.969815 C 2496.899754 531.149148 2628.993234 498.735444 2756.058156 498.728369 C 2911.390599 498.731197 3059.027038 547.160554 3168.274236 642.535685 C 3402.655243 847.033069 3415.52048 1216.265118 3307.162889 1475.55209 C 3180.259525 1779.106006 2914.983377 2000.299479 2698.154948 2159.061304 C 2432.650095 2353.482656 2146.086332 2520.8511 1845.42362 2658.947603 C 1584.767676 2249.71558 1639.812077 1671.29792 1830.542007 1247.789432 Z M 1830.542007 1247.789432 " stroke="#1a1a1a" stroke-width="1" stroke-opacity="1" stroke-miterlimit="10"/></g></g></g></g></g></g></g><g clip-path="url(#d1207cf3ef)"><g mask="url(#6a0d1035a1)"><g transform="matrix(1, 0, 0, 1, 41, 0.000000000000055289)"><g clip-path="url(#a8039c6371)"><g clip-path="url(#bb8bfc1993)"><path fill="#231f20" d="M 10.507812 228.738281 C 7.550781 228.738281 4.625 228.40625 1.792969 227.738281 C 1.398438 227.644531 1.152344 227.246094 1.246094 226.851562 C 1.339844 226.457031 1.738281 226.210938 2.132812 226.304688 C 18.816406 230.257812 37.53125 221.859375 45.667969 206.777344 C 49.285156 200.074219 50.46875 192.953125 49.011719 186.71875 C 47.074219 178.46875 40.777344 172.113281 34.683594 165.96875 C 33.039062 164.304688 31.335938 162.589844 29.75 160.863281 C 25.582031 156.328125 22.414062 151.117188 20.828125 146.183594 C 18.898438 140.183594 19.332031 134.664062 22.082031 130.226562 C 24.921875 125.648438 29.84375 122.800781 36.3125 121.996094 C 41.65625 121.332031 47.910156 122.070312 53.925781 124.074219 C 56.996094 125.097656 60.488281 126.886719 64.183594 128.777344 C 71.144531 132.34375 78.347656 136.03125 82.742188 134.535156 C 84.128906 134.0625 85.15625 133.085938 85.878906 131.554688 C 87.535156 128.054688 85.988281 124.222656 84.351562 120.167969 C 82.949219 116.691406 81.496094 113.09375 82.015625 109.464844 C 82.351562 107.105469 83.066406 103.683594 85.386719 101.230469 C 89.488281 96.898438 96.761719 97.628906 101.425781 100.835938 C 105.789062 103.839844 108.582031 108.460938 111.28125 112.929688 C 111.457031 113.21875 111.632812 113.507812 111.804688 113.796875 C 118.117188 124.199219 128.242188 138.40625 143.265625 141.621094 C 154.003906 143.917969 166.171875 139.683594 173.554688 131.082031 C 180.769531 122.667969 183.457031 110.535156 180.5625 99.414062 C 176.449219 83.597656 162.90625 72.796875 149.8125 62.351562 C 146.292969 59.539062 142.648438 56.636719 139.269531 53.691406 C 135.769531 50.636719 132.355469 47.203125 131.125 42.777344 C 130.15625 39.296875 130.605469 35.363281 132.382812 31.695312 C 134.914062 26.484375 139.636719 22.664062 146.03125 20.652344 C 151.703125 18.867188 158.402344 18.707031 164.417969 20.207031 C 173.039062 22.359375 180.785156 27.023438 188.277344 31.527344 C 190.957031 33.140625 193.730469 34.8125 196.496094 36.332031 C 209.625 43.5625 220.941406 45.566406 230.132812 42.289062 C 237.40625 39.699219 243.648438 33.542969 247.253906 25.402344 C 250.273438 18.59375 251.550781 10.597656 251.160156 0.953125 C 251.144531 0.546875 251.460938 0.203125 251.867188 0.1875 C 252.277344 0.171875 252.617188 0.488281 252.632812 0.894531 C 253.03125 10.765625 251.710938 18.980469 248.601562 26 C 244.832031 34.507812 238.28125 40.949219 230.625 43.675781 C 227.609375 44.75 224.386719 45.289062 220.960938 45.289062 C 213.480469 45.289062 205.054688 42.726562 195.785156 37.621094 C 192.996094 36.085938 190.210938 34.410156 187.515625 32.789062 C 180.117188 28.335938 172.46875 23.734375 164.058594 21.636719 C 153.1875 18.917969 138.851562 21.746094 133.707031 32.335938 C 132.085938 35.679688 131.671875 39.25 132.542969 42.382812 C 133.671875 46.433594 136.90625 49.675781 140.238281 52.578125 C 143.59375 55.503906 147.222656 58.398438 150.730469 61.195312 C 164.015625 71.792969 177.75 82.75 181.988281 99.039062 C 183.445312 104.648438 183.554688 110.667969 182.296875 116.445312 C 181.023438 122.316406 178.386719 127.707031 174.667969 132.039062 C 170.890625 136.445312 165.90625 139.824219 160.261719 141.8125 C 154.542969 143.824219 148.558594 144.257812 142.957031 143.058594 C 127.375 139.722656 116.996094 125.195312 110.542969 114.558594 C 110.367188 114.269531 110.191406 113.976562 110.019531 113.6875 C 107.398438 109.351562 104.691406 104.867188 100.585938 102.046875 C 96.433594 99.1875 90.011719 98.480469 86.453125 102.238281 C 84.90625 103.871094 83.960938 106.234375 83.46875 109.671875 C 83.007812 112.90625 84.382812 116.316406 85.714844 119.613281 C 87.398438 123.785156 89.140625 128.097656 87.210938 132.179688 C 86.320312 134.066406 84.972656 135.324219 83.214844 135.925781 C 82.378906 136.210938 81.46875 136.339844 80.503906 136.339844 C 75.722656 136.339844 69.53125 133.167969 63.511719 130.085938 C 59.867188 128.21875 56.421875 126.457031 53.457031 125.46875 C 47.648438 123.53125 41.621094 122.816406 36.492188 123.453125 C 30.480469 124.199219 25.929688 126.8125 23.332031 131 C 20.78125 135.117188 20.40625 140.074219 22.226562 145.730469 C 23.75 150.464844 26.804688 155.484375 30.832031 159.863281 C 32.402344 161.570312 34.09375 163.277344 35.730469 164.929688 C 41.964844 171.21875 48.410156 177.722656 50.441406 186.378906 C 51.984375 192.960938 50.75 200.453125 46.964844 207.472656 C 42.886719 215.027344 36.046875 221.25 27.695312 224.992188 C 22.175781 227.46875 16.28125 228.734375 10.507812 228.734375 Z M 10.507812 228.738281 " fill-opacity="1" fill-rule="nonzero"/></g></g></g></g></g></svg>